M48
; DRILL file {KiCad 8.0.4} date 2026-09-30T09:29:12-0300
; FORMAT={-:-/ absolute / metric / decimal}
; #@! TF.CreationDate,2026-09-30T09:29:12-03:00
; #@! TF.GenerationSoftware,Kicad,Pcbnew,8.0.4
; #@! TF.FileFunction,Plated,1,2,PTH
FMAT,2
METRIC
; #@! TA.AperFunction,Plated,PTH,ComponentDrill
T1C0.762
; #@! TA.AperFunction,Plated,PTH,ComponentDrill
T2C0.800
; #@! TA.AperFunction,Plated,PTH,ComponentDrill
T3C0.900
; #@! TA.AperFunction,Plated,PTH,ComponentDrill
T4C1.000
; #@! TA.AperFunction,Plated,PTH,ComponentDrill
T5C1.200
; #@! TA.AperFunction,Plated,PTH,ComponentDrill
T6C1.300
; #@! TA.AperFunction,Plated,PTH,ComponentDrill
T7C1.600
; #@! TA.AperFunction,Plated,PTH,ComponentDrill
T8C3.200
%
G90
G05
T1
X146.978Y-44.141
X146.978Y-46.681
X146.978Y-49.221
X146.978Y-51.761
T2
X126.0Y-100.65
X126.0Y-108.27
X126.0Y-111.15
X126.0Y-118.77
X126.072Y-62.61
X126.072Y-70.23
X126.072Y-73.92
X126.072Y-81.54
X130.5Y-63.96
X130.5Y-66.5
X130.5Y-69.04
X130.5Y-106.42
X130.5Y-108.96
X130.5Y-111.5
X142.75Y-71.46
X142.75Y-74.46
X142.75Y-77.46
X142.75Y-83.46
X142.75Y-86.46
X144.976Y-124.0
X145.25Y-71.46
X145.25Y-74.46
X145.25Y-77.46
X145.25Y-83.46
X145.25Y-86.46
X149.1Y-66.52
X149.1Y-69.06
X149.1Y-71.6
X149.1Y-74.14
X149.1Y-76.68
X149.1Y-79.22
X149.1Y-81.76
X149.1Y-84.3
X149.1Y-86.84
X149.1Y-89.38
X149.1Y-91.92
X149.1Y-94.46
X149.1Y-97.0
X149.1Y-99.54
X149.1Y-102.08
X152.596Y-124.0
X174.5Y-66.52
X174.5Y-69.06
X174.5Y-71.6
X174.5Y-74.14
X174.5Y-76.68
X174.5Y-79.22
X174.5Y-81.76
X174.5Y-84.3
X174.5Y-86.84
X174.5Y-89.38
X174.5Y-91.92
X174.5Y-94.46
X174.5Y-97.0
X174.5Y-99.54
X174.5Y-102.08
X178.69Y-96.96
X179.5Y-79.46
X179.5Y-87.08
X179.538Y-58.9
X179.538Y-66.52
X179.538Y-69.52
X179.538Y-77.14
X183.0Y-79.46
X183.0Y-87.08
X186.31Y-96.96
T3
X151.174Y-131.67
X153.714Y-131.67
X188.0Y-60.96
X188.0Y-67.96
X188.0Y-74.96
X188.0Y-81.96
X188.0Y-88.96
X190.54Y-60.96
X190.54Y-67.96
X190.54Y-74.96
X190.54Y-81.96
X190.54Y-88.96
T4
X138.5Y-79.46
X138.5Y-82.0
X138.5Y-84.54
T5
X102.572Y-40.42
X102.572Y-81.42
X102.572Y-84.71
X102.572Y-125.71
X119.572Y-40.42
X119.572Y-81.42
X119.572Y-84.71
X119.572Y-125.71
T6
X109.0Y-131.46
X114.0Y-131.46
X140.786Y-131.46
X145.786Y-131.46
X174.0Y-131.46
X179.0Y-131.46
X184.0Y-131.46
X189.0Y-131.46
T7
X131.036Y-122.97
X131.036Y-128.97
X135.736Y-125.97
T8
X102.0Y-132.5
X139.5Y-43.0
X192.0Y-112.0
M30
