%TF.GenerationSoftware,KiCad,Pcbnew,8.0.4*%
%TF.CreationDate,2026-09-30T09:29:02-03:00*%
%TF.ProjectId,telemetry-board,74656c65-6d65-4747-9279-2d626f617264,rev?*%
%TF.SameCoordinates,Original*%
%TF.FileFunction,Soldermask,Bot*%
%TF.FilePolarity,Negative*%
%FSLAX46Y46*%
G04 Gerber Fmt 4.6, Leading zero omitted, Abs format (unit mm)*
G04 Created by KiCad (PCBNEW 8.0.4) date 2026-09-30 09:29:02*
%MOMM*%
%LPD*%
G01*
G04 APERTURE LIST*
%ADD10R,2.500000X2.500000*%
%ADD11C,2.500000*%
%ADD12C,1.600000*%
%ADD13O,1.600000X1.600000*%
%ADD14R,1.800000X1.800000*%
%ADD15C,1.800000*%
%ADD16R,2.600000X2.600000*%
%ADD17C,2.600000*%
%ADD18R,1.524000X1.524000*%
%ADD19C,1.524000*%
%ADD20C,1.440000*%
%ADD21C,3.600000*%
%ADD22C,6.400000*%
%ADD23O,1.900000X1.524000*%
%ADD24R,1.700000X1.700000*%
%ADD25O,1.700000X1.700000*%
G04 APERTURE END LIST*
D10*
%TO.C,U3*%
X102572460Y-84710000D03*
D11*
X119572460Y-84710000D03*
X119572460Y-125710000D03*
X102572460Y-125710000D03*
%TD*%
D10*
%TO.C,U4*%
X102572460Y-40419813D03*
D11*
X119572460Y-40419813D03*
X119572460Y-81419813D03*
X102572460Y-81419813D03*
%TD*%
D12*
%TO.C,R9*%
X126000000Y-100650000D03*
D13*
X126000000Y-108270000D03*
%TD*%
D14*
%TO.C,BATT1*%
X190540000Y-88960000D03*
D15*
X188000000Y-88960000D03*
%TD*%
D12*
%TO.C,R8*%
X126072460Y-62609813D03*
D13*
X126072460Y-70229813D03*
%TD*%
D14*
%TO.C,MQTT1*%
X190540000Y-67960000D03*
D15*
X188000000Y-67960000D03*
%TD*%
D14*
%TO.C,D5*%
X153713770Y-131669813D03*
D15*
X151173770Y-131669813D03*
%TD*%
D16*
%TO.C,J5*%
X131036230Y-122969813D03*
D17*
X131036230Y-128969813D03*
X135736230Y-125969813D03*
%TD*%
D14*
%TO.C,RX1*%
X190540000Y-74960000D03*
D15*
X188000000Y-74960000D03*
%TD*%
D12*
%TO.C,C2*%
X145250000Y-71460000D03*
X142750000Y-71460000D03*
%TD*%
D16*
%TO.C,J1*%
X140786230Y-131460000D03*
D17*
X145786230Y-131460000D03*
%TD*%
D18*
%TO.C,U2*%
X146978322Y-44141258D03*
D19*
X146978322Y-46681258D03*
X146978322Y-49221258D03*
X146978322Y-51761258D03*
%TD*%
D12*
%TO.C,C4*%
X145250000Y-86460000D03*
X142750000Y-86460000D03*
%TD*%
D16*
%TO.C,J2*%
X174000000Y-131460000D03*
D17*
X179000000Y-131460000D03*
X184000000Y-131460000D03*
X189000000Y-131460000D03*
%TD*%
D12*
%TO.C,R1*%
X179537540Y-66520000D03*
D13*
X179537540Y-58900000D03*
%TD*%
D20*
%TO.C,RV1*%
X130500000Y-63960000D03*
X130500000Y-66500000D03*
X130500000Y-69040000D03*
%TD*%
D16*
%TO.C,J4*%
X109000000Y-131460000D03*
D17*
X114000000Y-131460000D03*
%TD*%
D21*
%TO.C,REF\u002A\u002A*%
X139500000Y-43000000D03*
D22*
X139500000Y-43000000D03*
%TD*%
D21*
%TO.C,REF\u002A\u002A*%
X102000000Y-132500000D03*
D22*
X102000000Y-132500000D03*
%TD*%
D12*
%TO.C,R5*%
X126000000Y-111150000D03*
D13*
X126000000Y-118770000D03*
%TD*%
D14*
%TO.C,TX1*%
X190540000Y-81960000D03*
D15*
X188000000Y-81960000D03*
%TD*%
D12*
%TO.C,R10*%
X178690000Y-96960000D03*
D13*
X186310000Y-96960000D03*
%TD*%
D23*
%TO.C,U1*%
X149100000Y-102080000D03*
X149100000Y-99540000D03*
X149100000Y-97000000D03*
X149100000Y-94460000D03*
X149100000Y-91920000D03*
X149100000Y-89380000D03*
X149100000Y-86840000D03*
X149100000Y-84300000D03*
X149100000Y-81760000D03*
X149100000Y-79220000D03*
X149100000Y-76680000D03*
X149100000Y-74140000D03*
X149100000Y-71600000D03*
X149100000Y-69060000D03*
X149100000Y-66520000D03*
X174500000Y-102080000D03*
X174500000Y-99540000D03*
X174500000Y-97000000D03*
X174500000Y-94460000D03*
X174500000Y-91920000D03*
X174500000Y-89380000D03*
X174500000Y-86840000D03*
X174500000Y-84300000D03*
X174500000Y-81760000D03*
X174500000Y-79220000D03*
X174500000Y-76680000D03*
X174500000Y-74140000D03*
X174500000Y-71600000D03*
X174500000Y-69060000D03*
X174500000Y-66520000D03*
%TD*%
D12*
%TO.C,C3*%
X145250000Y-83460000D03*
X142750000Y-83460000D03*
%TD*%
%TO.C,R2*%
X179537540Y-69520000D03*
D13*
X179537540Y-77140000D03*
%TD*%
D12*
%TO.C,R7*%
X152596230Y-124000000D03*
D13*
X144976230Y-124000000D03*
%TD*%
D12*
%TO.C,C5*%
X145250000Y-77460000D03*
X142750000Y-77460000D03*
%TD*%
D24*
%TO.C,J6*%
X138500000Y-79460000D03*
D25*
X138500000Y-82000000D03*
X138500000Y-84540000D03*
%TD*%
D21*
%TO.C,REF\u002A\u002A*%
X192000000Y-112000000D03*
D22*
X192000000Y-112000000D03*
%TD*%
D20*
%TO.C,RV2*%
X130500000Y-106420000D03*
X130500000Y-108960000D03*
X130500000Y-111500000D03*
%TD*%
D12*
%TO.C,R6*%
X126072460Y-73919813D03*
D13*
X126072460Y-81539813D03*
%TD*%
D12*
%TO.C,C1*%
X145250000Y-74460000D03*
X142750000Y-74460000D03*
%TD*%
D14*
%TO.C,WIFI1*%
X190540000Y-60960000D03*
D15*
X188000000Y-60960000D03*
%TD*%
D12*
%TO.C,R3*%
X179500000Y-79460000D03*
D13*
X179500000Y-87080000D03*
%TD*%
D12*
%TO.C,R4*%
X183000000Y-79460000D03*
D13*
X183000000Y-87080000D03*
%TD*%
M02*
